<svg id="Lager_1" xmlns="http://www.w3.org/2000/svg" viewBox="0 0 212.6 198.4"><style>.st0{fill:#792b45}</style><path class="st0" d="M2.7 3.3h5.6v20.4H21v5.1H2.7V3.3zM55.8 3.1H61l10.9 25.7H66l-2.3-5.7H52.9l-2.3 5.7h-5.7L55.8 3.1zm5.9 15l-3.4-8.3-3.4 8.3h6.8zM100.9 18.7L91.1 3.3h6.6l6.1 10.2L110 3.3h6.4l-9.8 15.3v10.2H101V18.7zM141.6 3.3h19.2v5h-13.7v5.2h12v5h-12v5.4H161v5h-19.4V3.3zM187.9 3.3h11.7c3.2 0 5.8.9 7.4 2.6 1.4 1.4 2.2 3.4 2.2 5.8v.1c0 4.1-2.2 6.7-5.5 7.9l6.2 9.1h-6.6l-5.5-8.2h-4.4v8.2h-5.6V3.3zm11.3 12.4c2.7 0 4.3-1.5 4.3-3.6V12c0-2.4-1.7-3.6-4.4-3.6h-5.6v7.3h5.7zM2.3 74.9h1.5v119.7H2.3zM7.1 71.4h1.5v123.1H7.1zM11.8 67.9h1.5v126.6h-1.5zM16.6 64.5h1.5v130.1h-1.5zM21.4 61h1.5v133.5h-1.5zM26.1 57.5h1.5v137h-1.5zM30.9 54.1h1.5v140.5h-1.5z"/><g><path class="st0" d="M35.7 50.6h1.5v143.9h-1.5z"/></g><g><path class="st0" d="M40.5 47.1H42v147.4h-1.5z"/></g><g><path class="st0" d="M45.2 43.7h1.5v150.9h-1.5z"/></g><g><path class="st0" d="M134.8 196.1c-20.3 0-39.3-7.9-53.6-22.2C66.9 159.6 59 140.5 59 120.3 59 100 66.9 81 81.2 66.7c14.3-14.3 33.4-22.2 53.6-22.2s39.3 7.9 53.6 22.2 22.2 33.4 22.2 53.6c0 20.3-7.9 39.3-22.2 53.6s-33.3 22.2-53.6 22.2zm0-150.3c-19.9 0-38.5 7.7-52.6 21.8-14 14-21.8 32.7-21.8 52.6s7.7 38.5 21.8 52.6c14 14 32.7 21.8 52.6 21.8s38.5-7.7 52.6-21.8 21.8-32.7 21.8-52.6-7.7-38.5-21.8-52.6c-14.1-14-32.7-21.8-52.6-21.8z"/><path class="st0" d="M134.7 191.5c-3 0-6-.2-9-.6-15.5-2-30.2-9.2-41.4-20.3-13.5-13.5-20.9-31.4-20.9-50.5s7.4-37 20.9-50.5c13.5-13.5 31.4-20.9 50.5-20.9 18.4 0 35.7 7.1 48.8 19.9 5.1 5.3 8.9 11.9 12.6 21.5.5 1.3.9 2.6 1.3 3.7 1.2 3.8 2.2 7.7 2.9 11.8.4 2.6.7 5.2 1 8.2.2 1.8.3 3.6.3 5.4 0 3.1-.4 6.5-1.1 10-.6 3.2-1.3 6-2 8.6-.2.6-.3 1.2-.5 1.8-.2.9-.5 1.9-.7 2.8l-.3 1.3c-.2.7-.4 1.5-.7 2.2l-.1.4c-.3 1.1-.7 2.1-1.1 3.1-.6 1.3-1.2 2.6-1.8 3.7-.2.5-.5.9-.7 1.4-.3.6-.6 1.3-.9 1.9-.4.7-.9 1.5-1.4 2.3-.4.6-.7 1.1-1 1.7-.4.6-.7 1.2-1.1 1.8-.8 1.2-1.8 2.6-2.9 4-1 1.2-1.9 2.3-2.9 3.4l-.3.4c-1.7 2-3.1 3.4-4.5 4.7-2.3 2.2-4.8 4-6.9 5.5-1.6 1.1-3.6 2.3-5.9 3.6-.5.2-.9.5-1.4.7-.5.3-1 .6-1.6.8-2.6 1.3-5.5 2.5-9 3.8-.6.2-1.1.4-1.7.5-5.2 1.2-10.4 1.9-15.7 1.9h-.8zm.1-141.2c-18.7 0-36.2 7.3-49.4 20.5-13.3 13.2-20.5 30.7-20.5 49.4s7.3 36.2 20.5 49.4c10.9 10.9 25.3 18 40.5 19.9 3.2.4 6.4.6 9.6.5 5.2-.1 10.3-.7 15.3-1.9.5-.2 1.1-.3 1.6-.5 3.5-1.2 6.3-2.4 8.9-3.7.5-.3 1-.5 1.5-.8.5-.3.9-.5 1.4-.8 2.3-1.2 4.2-2.3 5.7-3.4 2.1-1.5 4.5-3.3 6.7-5.4 1.3-1.2 2.7-2.6 4.4-4.6l.3-.4c1-1.1 1.9-2.2 2.9-3.4 1.1-1.4 2.1-2.6 2.8-3.8.4-.6.7-1.2 1.1-1.7.3-.6.7-1.2 1.1-1.7.5-.8 1-1.6 1.4-2.3.3-.5.6-1.1.9-1.7.2-.5.4-1 .7-1.5.6-1.1 1.2-2.4 1.8-3.6.4-.9.8-1.9 1.1-2.9l.1-.4c.2-.7.5-1.4.6-2.1l.3-1.3c.2-.9.5-1.8.7-2.8.1-.6.3-1.3.5-1.9.7-2.5 1.3-5.2 2-8.5.7-3.4 1-6.7 1-9.8 0-1.8-.1-3.5-.2-5.2-.3-2.9-.6-5.6-1-8.1-.7-4.1-1.6-7.9-2.8-11.6-.4-1.1-.8-2.3-1.3-3.6-3.6-9.4-7.4-15.9-12.3-21-13-12.4-30-19.3-47.9-19.3z"/><path class="st0" d="M134.5 187c-2.6 0-5.2-.1-7.7-.4-14.8-1.7-28.8-8.5-39.4-19.1-12.6-12.6-19.6-29.4-19.6-47.3s7-34.7 19.6-47.3c12.6-12.6 29.4-19.6 47.3-19.6 16.5 0 32.1 6.2 44 17.5 4.3 5 7.2 12.6 9.6 20.1.4 1.4.8 2.5 1 3.5.9 3.5 1.6 6.9 2.2 11.1.2 1.4.4 3 .5 4.5.1 1.1.2 2.2.4 3.2.2 1.7.3 3.3.3 5.1 0 2.8-.5 6-1.4 9.4-.3 1.1-.6 2.2-.8 3.2-.4 1.7-.8 3.3-1.3 4.8-.2.5-.3 1.1-.3 1.7-.1.5-.1.9-.2 1.4-.1.8-.2 1.5-.3 2.3-.1.6-.2 1.2-.4 1.8l-.1.6c-.2 1-.5 2-.9 2.9-.5 1.2-1.1 2.3-1.6 3.4l-.1.2c-.2.4-.4.9-.5 1.4-.2.6-.4 1.2-.7 1.7-.4.6-.9 1.5-1.3 2.2-.4.7-.8 1.5-1.1 2.2-.2.3-.3.7-.5 1-.6 1.2-1.4 2.5-2.5 3.9l-.9 1.2c-.6.8-1.2 1.6-1.9 2.4l-.4.5c-1.1 1.5-2.1 2.9-3.2 4-1.2 1.3-2.4 2.3-3.6 3.4-.5.5-1.1.9-1.6 1.4-1 .9-2.4 1.9-4.5 3.2-.5.3-.9.6-1.4.9-.3.2-.7.5-1 .7l-.5.3c-2.2 1.5-5 3.3-8.7 4.5-4.8 1.2-9.8 1.9-14.8 2.1h-1.7zm.2-132.2c-17.5 0-33.9 6.8-46.2 19.1s-19.1 28.8-19.1 46.2 6.8 33.9 19.1 46.2c10.4 10.4 24 17 38.5 18.6 3 .3 6.1.5 9.2.4 4.9-.1 9.7-.8 14.4-2 3.5-1.1 6-2.8 8.3-4.3l.5-.3c.3-.2.6-.4 1-.7.5-.3 1-.7 1.5-1 2-1.2 3.4-2.1 4.3-3 .5-.5 1-.9 1.6-1.4 1.1-1 2.3-2 3.4-3.3 1-1.1 2-2.4 3.1-3.9l.4-.5c.7-.9 1.3-1.7 1.9-2.5l.9-1.2c1-1.3 1.9-2.6 2.4-3.7.2-.3.3-.7.5-1 .4-.8.7-1.5 1.2-2.3.4-.7.9-1.6 1.3-2.2.2-.4.4-.8.5-1.4.2-.5.3-1.1.6-1.6l.1-.2c.6-1.1 1.1-2.2 1.6-3.3.3-.9.6-1.8.8-2.7l.1-.6c.1-.6.3-1.1.3-1.6.1-.8.2-1.5.3-2.3.1-.5.1-.9.2-1.4.1-.6.2-1.2.4-1.8.4-1.5.8-3.1 1.3-4.8.3-1 .5-2.1.8-3.2.9-3.3 1.3-6.4 1.4-9.1 0-1.7-.1-3.2-.3-4.9-.1-1-.2-2.1-.4-3.2-.2-1.5-.3-3-.5-4.4-.6-4.2-1.3-7.6-2.2-11-.3-1-.6-2.1-1-3.4-2.4-7.4-5.1-14.8-9.2-19.5-11.7-10.7-26.9-16.8-43-16.8z"/><path class="st0" d="M134.3 182.4c-2.1 0-4.3-.1-6.4-.3-14-1.4-27.3-7.8-37.3-17.8-11.8-11.8-18.2-27.4-18.2-44s6.5-32.3 18.2-44l.5.5-.5-.5c11.8-11.8 27.4-18.2 44-18.2 14.5 0 28.4 5.4 39.1 15.2l.1.1c2.8 3.5 4.4 9.9 5.9 16.2l.6 2.4c.3 1.3.6 2.3.7 3.3.7 3.8 1.1 7 1.5 10.1v.4c.1.9.2 2 .3 3 .1 1.4.3 2.8.5 4.2.3 1.7.4 3.1.3 4.8 0 2.5-.6 5.5-1.7 8.8-.8 2.4-1.4 4.5-1.9 6.5l-.3.9c-.1.5-.2 1-.2 1.5v.8c-.1.8-.1 1.7-.1 2.4 0 .6 0 1.1-.1 1.7 0 .2 0 .4-.1.5-.1 1-.3 1.9-.6 2.8-.4 1-.9 2-1.4 3l-.2.5c-.2.4-.3.8-.4 1.3-.1.5-.2 1.1-.5 1.6s-.8 1.4-1.2 2.1c-.4.7-.6 1.4-.8 2.2-.1.3-.2.5-.3.8-.4 1.1-1.1 2.4-2.2 3.8l-.3.4c-.7 1-1.4 1.9-2.1 3.1-.4.7-.8 1.3-1.2 2-.5.9-1 1.7-1.5 2.3-.6.9-1.3 1.6-1.9 2.2-.6.6-1.1 1.2-1.5 1.7-.5.8-1.5 1.7-3.2 2.9-.3.2-.7.6-1 .9-.2.2-.5.5-.8.7-2 1.8-5.1 4.1-7.5 5.2h-.1c-4.5 1.2-9.2 2-13.9 2.2-.7-.3-1.5-.2-2.3-.2zm.3-123c-16.2 0-31.5 6.3-43 17.8s-17.8 26.7-17.8 43 6.3 31.5 17.8 43c9.8 9.8 22.7 16 36.4 17.4 2.9.3 5.8.4 8.6.3 4.6-.2 9.1-.9 13.5-2.1 2.3-1.1 5.2-3.3 7.1-5 .3-.2.5-.5.7-.7.4-.4.8-.7 1.2-1 1-.7 2.3-1.7 2.8-2.5.4-.7 1-1.3 1.6-2 .6-.6 1.2-1.3 1.8-2.1.4-.6.9-1.4 1.4-2.2.4-.6.8-1.3 1.2-2 .8-1.2 1.4-2.1 2.2-3.1l.3-.4c1-1.3 1.6-2.5 2-3.4.1-.3.2-.5.2-.8.3-.8.5-1.6 1-2.5.4-.7.9-1.6 1.2-2.1.1-.2.2-.6.3-1 .1-.5.2-1.1.5-1.7l.2-.5c.5-.9.9-1.8 1.3-2.8.3-.8.5-1.6.5-2.5 0-.2 0-.4.1-.6.1-.5.1-.9.1-1.4 0-.9 0-1.8.1-2.6v-.8c0-.6.1-1.2.3-1.8l.3-.9c.5-2 1.2-4.2 2-6.6 1.1-3.2 1.6-6.1 1.7-8.4 0-1.6-.1-3-.3-4.5-.2-1.4-.3-2.8-.5-4.3l-.3-3v-.4c-.4-3.1-.8-6.3-1.5-10-.2-.9-.4-1.9-.7-3.2l-.6-2.4c-1.5-6-3-12.3-5.5-15.5-10.5-9.5-24-14.7-38.2-14.7z"/><path class="st0" d="M134.1 177.7c-1.7 0-3.4-.1-5.2-.2-13.3-1.2-25.8-7.1-35.3-16.5-10.9-10.9-16.9-25.4-16.9-40.8s6-29.9 16.9-40.8c10.9-10.9 25.4-16.9 40.8-16.9 12.6 0 24.8 4.6 34.3 12.8l.2.2c.3.5.5 1 .7 1.3 1.1 1.9 1.3 2.4 2.1 7.3.1.4.4 1.3.7 2 .4.9.7 1.8.8 2.4.2 2 .4 2.7.6 3.3.2.6.3 1.2.5 2.6.1 1.1.4 2.2.7 3.3.2.8.4 1.6.6 2.5.3 1.6.4 2.9.4 4.5 0 2.2-.7 4.9-2 8.2-1 2.6-1.7 4.8-2.3 6.8-.1.5-.2.9-.2 1.3v.4c0 .8.1 1.6.3 2.4.1.5.1 1.1.1 1.6v.5c0 .9-.1 1.8-.3 2.7-.1.4-.5 2.8-.9 5.1-1.1 6.3-1.6 9.2-1.9 9.8-.2.3-.2.7-.2 1.2s0 1-.3 1.5c-.2.4-.7 1.3-1.1 1.9-.3.6-.4 1.3-.5 2.1 0 .2-.1.4-.1.6-.2 1-.8 2.3-1.8 3.8-.7 1.1-1.3 2-2 3.3-.5 1-.9 1.9-1.2 2.7-.2.5-.4 1-.6 1.4-.3.6-.6 1.2-.9 1.7-.3.5-.6 1-.7 1.4.1 1-.8 1.8-1.8 2.7l-.1.1c-.2.2-.4.5-.6.8-.2.3-.4.5-.6.8l-.4.5c-1.2 1.5-2.6 3.2-5.5 5.2-.1 0-.1.1-.2.1-4.2 1.3-8.6 2-13.1 2.3-.9.1-1.9.1-3 .1zM94.7 80.5c-10.6 10.6-16.4 24.7-16.4 39.7s5.8 29.1 16.4 39.7c9.2 9.2 21.4 14.9 34.3 16.1 2.7.2 5.4.3 8.1.1 4.3-.2 8.5-1 12.6-2.2 2.7-1.8 4-3.4 5.1-4.8l.4-.5c.2-.3.4-.5.6-.7.3-.4.5-.8.9-1l.1-.1c.5-.4 1.3-1.2 1.3-1.5v-.3c.1-.7.5-1.3.9-2 .3-.5.6-1 .8-1.5.2-.4.3-.8.5-1.3.3-.8.7-1.7 1.2-2.8.7-1.4 1.4-2.3 2.1-3.4.9-1.3 1.5-2.5 1.6-3.3 0-.2.1-.4.1-.6.1-.8.2-1.7.6-2.5.3-.7.9-1.6 1.1-2.1.1-.1.1-.5.1-.7 0-.5 0-1.2.3-1.8.3-.6 1.2-6.1 1.8-9.4.5-3.1.8-4.9 1-5.3.2-.7.3-1.5.3-2.2v-.5c0-.4 0-.8-.1-1.2-.2-.9-.3-1.8-.3-2.7v-.4c0-.6 0-1.2.2-1.8.6-2.1 1.3-4.3 2.3-7 1.2-3.1 1.9-5.7 1.9-7.7 0-1.5-.1-2.7-.4-4.2l-.6-2.4c-.3-1.2-.6-2.3-.7-3.6-.1-1.3-.3-1.7-.4-2.3-.2-.7-.4-1.5-.7-3.5 0-.4-.4-1.2-.7-2-.4-.9-.7-1.7-.8-2.3-.8-4.8-1-5.1-2-6.9-.2-.3-.4-.8-.7-1.3-9.2-8-21-12.4-33.2-12.4-14.9.1-29 6-39.6 16.6z"/><path class="st0" d="M133.8 172.9c-1.3 0-2.6 0-4-.1-12.5-.9-24.2-6.3-33.1-15.2-10-10-15.5-23.3-15.5-37.4s5.5-27.4 15.5-37.4 23.3-15.5 37.4-15.5c10.7 0 21.2 3.7 29.4 10.5l.2.2c.9 1.6.8 2.6.7 4.1-.1 1.1-.2 2.4-.1 4.7 0 .5.1.9.2 1.3.1.5.2 1 .2 1.5.1 2.3.1 2.4.1 2.7 0 .2 0 .4.1 1.4.1 1.7.4 3.8.9 5.7.1.3.1.6.2.8.3 1.1.5 2.2.5 3.4-.1 1.9-.8 4.4-2.3 7.6-1.2 2.5-1.8 4.5-2.3 6.2-.1.4-.1.7-.1 1.1.2.9.3 1.6.7 2.4.3.5.3 1 .4 1.5 0 .1 0 .2.1.4.2.9.1 1.7-.1 2.6-.1.4-.1.7-.1 1.1 0 .6-.1 1.3-.4 2-.2.4-.2.8-.3 1.2-.1.5-.1.9-.3 1.3-.1.1-.2.3-.4.5-.3.4-.7.9-.8 1.2-.2.5-.2 1.2-.2 1.9v.6c0 1-.5 2.2-1.4 3.7-.2.4-.1 2.4-.1 3.8.1 2.4.1 3.9-.2 4.7-.3.7-.6 1.4-.9 1.9-.4.7-.7 1.3-.7 1.8-.2 1.2-.3 1.6-.1 2.3.3 1.3 0 8.2-.8 9.3-.2.3-.5.8-.7 1.5 0 .1-.1.2-.1.2-.2.3-.5.6-.8 1-1.1 1.4-2.6 3.3-4.5 4.9-.1.1-.2.1-.2.1-3.9 1.3-8 2.1-12.2 2.4-1.4.1-2.6.1-3.9.1zm.4-104.1c-13.7 0-26.6 5.3-36.3 15.1-9.7 9.7-15.1 22.6-15.1 36.3 0 13.7 5.3 26.6 15.1 36.3 8.6 8.6 20 13.9 32.1 14.8 2.5.2 5.1.2 7.6 0 4-.3 7.9-1.1 11.7-2.3 1.8-1.5 3.2-3.3 4.2-4.6.3-.3.5-.6.7-.9.3-.8.6-1.4.9-1.8.4-.7.9-6.9.6-8-.3-1-.2-1.7.1-3 .1-.7.5-1.4.9-2.2.3-.5.6-1.2.9-1.8.2-.6.2-2.6.1-4.1-.1-2.5-.1-3.9.3-4.6.7-1.2 1.2-2.3 1.2-2.9v-.5c0-.8-.1-1.7.3-2.5.2-.5.7-1.1 1-1.6.1-.2.2-.3.3-.4.1-.1.1-.4.1-.7.1-.5.1-1.1.4-1.7.2-.4.2-.9.3-1.4 0-.4 0-.9.2-1.4.2-.7.2-1.3.1-2 0-.1 0-.3-.1-.4-.1-.4-.1-.7-.3-1-.5-.9-.6-1.8-.8-2.7-.1-.6-.1-1.2.1-1.8.5-1.8 1.2-3.9 2.4-6.5 1.4-3 2.2-5.3 2.2-7 0-1-.2-1.9-.5-3-.1-.3-.1-.6-.2-.9-.5-2-.8-4.2-.9-6-.1-.9-.1-1.2-.1-1.3 0-.3 0-.4-.2-2.7 0-.4-.1-.8-.2-1.3s-.2-1-.2-1.5c-.2-2.4 0-3.8.1-4.9.1-1.3.2-2-.4-3.1-8.2-6.4-18.3-10-28.6-10z"/><path class="st0" d="M133.4 168.1c-.9 0-1.9 0-2.8-.1-11.6-.7-22.5-5.6-30.8-13.9-9.1-9.1-14.1-21.1-14.1-34s5-24.9 14.1-34c9.1-9.1 21.1-14.1 34-14.1 8.9 0 17.6 2.9 24.6 8.2.1 0 .1.1.2.2.9 1.3.1 2.6-.6 3.7-.5.8-1 1.5-1 2.3v2c0 1.2-.1 2.2-.1 3.1-.1 1.4-.1 2.5-.1 3.4v.9c0 1.5 0 4.3.3 5.3.3 1.2.4 2 .4 3.2 0 1.4-.8 3.6-2.1 5.9-1.1 1.9-1.6 3.4-1.9 4.5-.1.2-.1.4 0 .6.2.5.4 1 .8 1.5.3.4.5.8.6 1.2l.1.2c.3.7.3 1.1.2 1.8-.1.7-.4 1.3-.7 1.9-.1.2-.2.3-.2.5 0 .1.1.5.2.6.1.4.3.8 0 1.2-.1.2-.5.9-.6 1.3-.1.3 0 .7.1 1.2l.1.4c.2.8-.2 1.3-.5 1.8-.1.1-.2.3-.3.5-.2.3-.3.5-.4.6-.2.3-.3.6-.7 1.3-.5 1-.4 1.3-.3 1.9.1.5.3.8.9 1.1.5.2 1.1.4 1.3.9.2.5.1 1-.1 1.3 0 .1-.1.4-.2 1.2 0 .1 0 .2-.1.3-.1.5-.2 4.8-.2 8.6-.1 8.2-.2 14-.7 15.3-.2.5-2 2.4-3.4 3.3-.1 0-.1.1-.2.1-3.6 1.3-7.4 2.1-11.3 2.5-1.5.2-3 .3-4.5.3zm.4-94.5c-12.4 0-24.1 4.8-32.9 13.6-8.8 8.8-13.6 20.5-13.6 32.9 0 12.4 4.8 24.1 13.6 32.9 8 8 18.6 12.8 29.8 13.4 2.3.1 4.7.1 7-.1 3.7-.3 7.3-1.1 10.8-2.3 1.2-.9 2.6-2.4 2.8-2.7.5-1.1.5-9.3.6-14.7.1-6.3.1-8.4.3-9.1.1-.7.2-1.2.3-1.5v-.1c-.1 0-.2-.1-.3-.1-1.1-.4-1.7-1-2-2.2-.2-.9-.2-1.5.4-2.8.3-.8.5-1.1.7-1.4.1-.2.2-.3.3-.6.1-.2.3-.4.4-.6.3-.4.3-.4.2-.6l-.1-.3c-.2-.6-.3-1.4-.1-2.1.2-.4.5-1 .6-1.3v-.1c-.2-.4-.4-1.1-.1-1.8.1-.2.2-.3.2-.5.3-.5.5-1 .6-1.5.1-.4.1-.6-.1-1l-.1-.2c-.1-.3-.2-.5-.3-.7-.6-.7-.8-1.4-1.1-2-.2-.5-.2-1 0-1.5.3-1.2.9-2.8 2-4.8s1.9-4 1.9-5.2c0-1-.1-1.7-.3-2.7-.3-1.1-.3-3.4-.3-5.7v-.9c0-1 0-2.1.1-3.5 0-.9.1-1.9.1-3.1V88v-1.4c0-1.2.7-2.3 1.2-3.2.6-1 .9-1.5.7-1.9-6.4-5.1-14.8-7.9-23.3-7.9z"/><path class="st0" d="M133.1 163.3h-1.8c-10.7-.4-20.9-4.9-28.5-12.5-8.2-8.2-12.7-19-12.7-30.6s4.5-22.4 12.7-30.6c8.2-8.2 19-12.7 30.6-12.7 7.1 0 14 2.1 19.9 6 .3.2.4.5.3.8-.6 1.9-1.7 3.5-2.7 5-1 1.5-2 3-2.2 4.5-.1.7-.2 1.4-.3 1.9-.1.9-.2 1.6-.3 2.3-.2 1.6-.3 2.7-.4 3.7v.2c0 1.1-.1 2.7.2 3.7.3 1.1.5 1.9.4 2.9-.1 1.2-.8 2.7-2.3 5.1-1.2 1.8-1.7 3.1-1.9 4-.1.2 0 .3 0 .4.2.4.5.8 1 1.2.5.3.7.7.9 1l.1.1c.4.6.5 1.3.4 2-.1.7-.4 1.3-.6 1.8-.1.2-.2.3-.2.4 0 0 .2.3.3.5.2.3.5.7.2 1.2-.1.1-.4.8-.5 1.1-.1.2.2.7.3 1l.1.3c.3.7.2 1.7-.4 3-.3.7-.5 1.1-.7 2.2-.2 1 .1 1.7.4 2.1.3.4.6.7 1.8.8 1.3.1 2.3.3 2.4 1.6v.2c.1.3.1.7.1 1.4 0 .3.1 2.4.2 4.5.4 7 .7 13.5.4 15-.1.6-.6.8-1.1 1.1-.2.1-.5.2-.8.4 0 0-.1 0-.1.1-3.3 1.3-6.8 2.1-10.3 2.5-1.6.3-3.2.4-4.9.4zm-29.2-72.6C96 98.6 91.7 109 91.7 120.2c0 11.1 4.3 21.6 12.2 29.5 7.4 7.4 17.1 11.7 27.5 12.1 2.1.1 4.3 0 6.5-.2 3.4-.4 6.7-1.2 9.9-2.4.3-.2.6-.3.9-.5.1 0 .2-.1.3-.2.2-1.9-.2-9.7-.5-14.5-.2-2.9-.2-4.3-.2-4.7 0-.4 0-.8-.1-1v-.3c-.1 0-.4-.1-1-.2-1.5-.2-2.3-.5-2.9-1.4-.7-1-1-2.1-.7-3.3.3-1.2.5-1.7.8-2.5.5-1 .5-1.6.4-1.8l-.1-.3c-.3-.6-.6-1.3-.4-2.1.1-.4.3-.8.5-1.1-.3-.4-.7-1.1-.4-1.8.1-.2.2-.3.2-.5.2-.4.4-.9.5-1.3 0-.4 0-.7-.2-1.1l-.1-.1c-.1-.2-.3-.4-.5-.6-.8-.6-1.2-1.2-1.4-1.7-.2-.5-.3-1-.1-1.5.3-.9.8-2.4 2.1-4.4 1.3-2 2-3.5 2.1-4.4 0-.9-.1-1.5-.3-2.4-.4-1.3-.3-3-.3-4.2v-.2c0-1 .2-2.2.4-3.8.1-.7.2-1.4.3-2.3.1-.5.2-1.1.3-1.8.3-1.9 1.4-3.5 2.5-5.2.9-1.3 1.8-2.6 2.3-4.1-5.5-3.6-12-5.4-18.6-5.4-11.3 0-21.8 4.3-29.7 12.2z"/><path class="st0" d="M132.8 158.4h-.8c-9.8-.2-19.1-4.2-26.1-11.2-7.2-7.2-11.2-16.9-11.2-27.1s4-19.9 11.2-27.1c7.2-7.2 16.9-11.2 27.1-11.2 5.6 0 11.8 2.3 15.4 4.2.2.1.4.4.4.6s-.1.5-.4.7c-3.4 2.1-6.3 8.9-7.1 11.7-.2.6-.3 1.2-.4 1.6l-.1.6c-.5 2.4-.8 3.8-.9 4.7-.2 1.5-.1 2.8.1 3.4.4 1 .5 1.7.4 2.7-.1 1-.8 2.3-2.5 4.6-1.3 1.7-1.7 2.8-1.9 3.5v.2c.2.3.5.6 1.2 1 .6.3.9.6 1.1.9.5.6.7 1.2.7 1.9s-.3 1.3-.5 1.7c0 .1-.1.2-.1.3.1.1.3.4.4.5.2.2.6.6.3 1.1-.1.2-.4.7-.4 1 0 .1.3.6.5.8l.2.2c.5.7.5 1.7 0 3-.2.6-.3.9-.5 2-.1.8.2 1.4.8 1.8.5.4 1.4.5 3 .5 1.8 0 2.7.1 3.2.9.2.2.4.8.6 1.7.2 1 1.1 11.5 1.1 14 0 .4 0 1-.1 1.4 0 .3-.2.5-.5.6-2.8 1.2-5.3 1.8-8.9 2.3-1.8.4-3.5.5-5.3.5zm.2-75c-9.8 0-19.1 3.8-26 10.8-7 7-10.8 16.2-10.8 26s3.8 19.1 10.8 26c6.7 6.7 15.6 10.5 25.1 10.7 2 0 3.9-.1 5.9-.3 3.2-.4 5.6-1 8.1-2v-.7c0-2.5-.9-12.9-1.1-13.8-.1-.7-.3-1-.4-1.1-.1-.1-.3-.3-2-.2-2 0-3-.2-3.9-.7-1.1-.7-1.6-1.9-1.5-3.2.1-1.2.2-1.7.5-2.4.3-.9.3-1.4.2-1.5l-.2-.2c-.4-.6-.9-1.3-.8-2 .1-.3.2-.7.4-1-.4-.4-.9-1.1-.6-1.8.1-.2.1-.3.2-.5.2-.4.4-.8.4-1.1 0-.3-.1-.6-.3-.9-.2-.3-.4-.4-.7-.6-.8-.4-1.3-.8-1.7-1.4-.3-.4-.4-1-.2-1.5.4-1.3 1.1-2.5 2.2-3.9 1.4-1.9 2.2-3.1 2.2-3.8 0-.7 0-1.2-.4-2.1-.3-.9-.4-2.3-.2-4.1.1-1 .4-2.4.9-4.9l.1-.6c.1-.5.3-1.1.5-1.8.5-1.8 3.1-8.7 6.7-11.8-3.3-1.9-8.6-3.6-13.4-3.6z"/><path class="st0" d="M132.4 153.4c-8.9 0-17.2-3.5-23.5-9.7-6.3-6.3-9.7-14.6-9.7-23.5s3.5-17.2 9.7-23.5c6.3-6.3 14.6-9.7 23.5-9.7 3.7 0 7.3.6 10.8 1.8.3.1.5.4.5.7 0 .3-.2.6-.5.7-5.3 2.3-7.9 6-9.2 8.7-.4.8-.6 1.4-.7 1.8-.9 2.9-1.5 4.7-1.7 5.9-.2 1-.3 2.8 0 3.7.5 1.2.7 1.9.6 3-.1.9-1 2.3-3.3 4.9-1.3 1.4-2 2.7-2.4 3.8v.1c.4.4 1 .7 1.9 1 .8.3 1.2.6 1.6.9.7.6 1 1.2 1.1 2.1 0 .8-.3 1.4-.6 2-.1.1-.1.2-.2.3.1.2.5.5.9.8.3.2.4.6.3 1-.2.4-.4.9-.4 1.1.1.2.6.7.9 1l.2.2c.7.7.8 1.8.3 3.3-.2.6-.2.9-.3 2.4 0 1.4 1.1 1.9 1.6 2.1 1 .4 2.6.3 5.2.1 2.4-.1 2.7-.2 3.4.4l.2.1c.6.4.7 1.2.8 2.2.1 1.5.3 2.5.8 5.5.1.7.1 1.3.1 1.7v.3c0 .3-.2.6-.5.7-4 1.6-7 2.1-11.4 2.1zm0-65c-8.5 0-16.5 3.3-22.5 9.3-6 6-9.3 14-9.3 22.5s3.3 16.5 9.3 22.5c6 6 14 9.3 22.5 9.3 4.1 0 6.8-.5 10.4-1.8 0-.4 0-.8-.1-1.3-.5-3-.6-4.1-.8-5.6-.1-.9-.2-1.1-.2-1.2-.1-.1-.2-.1-.2-.2-.2-.2-.2-.2-2.3-.1-2.8.2-4.5.3-5.8-.2-1.7-.6-2.6-1.9-2.6-3.6 0-1.5.1-1.9.3-2.8.3-.9.3-1.6 0-1.8l-.2-.2c-.8-.7-1.5-1.4-1.4-2.3 0-.3.2-.7.3-1-.6-.5-1.3-1.3-1-2l.3-.6c.2-.4.4-.9.4-1.2 0-.4-.2-.7-.5-1-.3-.2-.6-.4-1.1-.6-1.1-.4-1.8-.8-2.4-1.3-.3-.3-.7-.9-.4-1.7.4-1.3 1.3-2.7 2.7-4.3 1.9-2.2 2.9-3.5 2.9-4.1.1-.7 0-1.2-.5-2.3-.6-1.3-.4-3.5-.1-4.6.3-1.3.8-3.1 1.8-6.1.1-.4.4-1.1.8-2 1.2-2.6 3.6-6.1 8.2-8.6-2.7-.7-5.6-1.1-8.5-1.1z"/></g></svg>